<!-- Sybil Favicon - 16x16 Realistic Oracle Ear -->
<svg xmlns="http://www.w3.org/2000/svg" viewBox="0 0 16 16" width="16" height="16">
  <!-- Background -->
  <circle cx="8" cy="8" r="7.5" fill="#1976d2" stroke="#ffffff" stroke-width="1"/>
  
  <!-- Simplified but recognizable ear outline -->
  <path d="M4.5 4 C5.5 3, 7.5 3, 9 4 C10 5, 10.5 6.5, 10.5 8 C10.5 9.5, 10 11, 9 12 C7.5 13, 5.5 13, 4.5 12 C4 11, 4 10, 4.5 9 C5 8, 6 7.5, 7 7.5 C8 7.5, 8.5 8, 8.5 8.5" 
        stroke="#ffffff" stroke-width="1.2" fill="none"/>
  
  <!-- Inner ear -->
  <ellipse cx="7" cy="8.5" rx="2" ry="2.5" fill="#ffffff"/>
  <ellipse cx="7" cy="8.5" rx="1" ry="1.2" fill="#7c4dff"/>
  
  <!-- Sound waves -->
  <path d="M2.5 8 Q3.5 7, 4.5 8 Q3.5 9, 2.5 8" stroke="#ff9800" stroke-width="1" fill="none" opacity="0.8"/>
  <path d="M1.5 8 Q3 6.5, 4.5 8 Q3 9.5, 1.5 8" stroke="#ff9800" stroke-width="0.8" fill="none" opacity="0.6"/>
</svg>
