<!-- Sybil Favicon - 32x32 Oracle Ear Design -->
<svg xmlns="http://www.w3.org/2000/svg" viewBox="0 0 32 32" width="32" height="32">
  <!-- Background Circle -->
  <circle cx="16" cy="16" r="15" fill="#1976d2" stroke="#ffffff" stroke-width="1"/>
  
  <!-- Oracle Ear Shape -->
  <path d="M10 8 C14 6, 20 8, 22 14 C22 18, 20 22, 16 24 C14 22, 12 18, 12 14 C12 11, 11 9, 10 8 Z" fill="#ffffff"/>
  
  <!-- Inner Ear -->
  <path d="M13 12 C15 11, 18 12, 19 15 C19 17, 17 19, 15 20 C14 19, 13 17, 13 15 C13 13.5, 13 12.5, 13 12 Z" fill="#7c4dff"/>
  
  <!-- Ear Canal -->
  <ellipse cx="15.5" cy="15.5" rx="2" ry="1.5" fill="#1a237e"/>
  
  <!-- Sound Waves -->
  <path d="M6 16 Q8 14, 10 16 Q8 18, 6 16" stroke="#ff9800" stroke-width="1" fill="none" opacity="0.8"/>
  <path d="M4 16 Q7 12, 10 16 Q7 20, 4 16" stroke="#ff9800" stroke-width="1" fill="none" opacity="0.6"/>
  <path d="M2 16 Q6 10, 10 16 Q6 22, 2 16" stroke="#ff9800" stroke-width="1" fill="none" opacity="0.4"/>
  
  <!-- AI Accent Dot -->
  <circle cx="15" cy="14" r="0.8" fill="#ffffff" opacity="0.9"/>
</svg>
