<!-- Sybil Favicon - 32x32 Realistic Oracle Ear -->
<svg xmlns="http://www.w3.org/2000/svg" viewBox="0 0 32 32" width="32" height="32">
  <!-- Background Circle -->
  <circle cx="16" cy="16" r="15" fill="#1976d2" stroke="#ffffff" stroke-width="1"/>
  
  <!-- Detailed Outer Ear (Helix) -->
  <path d="M9 8 C11 6, 15 6, 18 8 C20 10, 21 13, 21 16 C21 19, 20 22, 18 24 C15 26, 11 26, 9 24 C8 22, 8 20, 9 18 C10 16, 12 15, 14 15 C16 15, 17 16, 17 17 C17 18, 16 19, 15 19" 
        stroke="#ffffff" stroke-width="2.5" fill="none"/>
  
  <!-- Inner Ear Shape (Concha) -->
  <ellipse cx="14" cy="17" rx="4" ry="5" fill="#ffffff"/>
  
  <!-- Ear Canal -->
  <ellipse cx="14" cy="17" rx="2" ry="2.5" fill="#7c4dff"/>
  
  <!-- Inner Canal -->
  <ellipse cx="14" cy="17" rx="1" ry="1.2" fill="#1a237e"/>
  
  <!-- Tragus (small ear bump) -->
  <ellipse cx="11" cy="16" rx="1.5" ry="1" fill="#ffffff"/>
  
  <!-- Sound Waves -->
  <path d="M5 16 Q7 14, 9 16 Q7 18, 5 16" stroke="#ff9800" stroke-width="1.5" fill="none" opacity="0.9"/>
  <path d="M3 16 Q6 12, 9 16 Q6 20, 3 16" stroke="#ff9800" stroke-width="1.2" fill="none" opacity="0.7"/>
  <path d="M1 16 Q5 10, 9 16 Q5 22, 1 16" stroke="#ff9800" stroke-width="1" fill="none" opacity="0.5"/>
</svg>
